<svg xmlns="http://www.w3.org/2000/svg" viewBox="0 0 384 384">
    <path d="M692,469c-1,7.51-2.08,15-3,22.52-3.21,27.74-6.33,55.49-9.52,83.23-1.64,14.24-2.54,28.63-5.19,42.68-8.25,43.74-44.15,73.31-89.1,73.51q-85,.39-169.94,0c-44.81-.23-80.53-29.65-88.94-73.26-2.54-13.18-3.41-26.69-4.95-40.06Q317,539.48,312.7,501.4c-1.31-11.52-2.88-23-3.87-34.56-3.09-35.83,27.95-68.95,63.84-68.34,8.56.14,14.7,5.71,15.27,13.83s-4.71,14.54-13.15,15.85c-2.94.46-6,.4-8.89,1-17.78,3.81-29.11,20.3-26.95,38.35,3.55,29.71,6.77,59.45,10.18,89.18,2.11,18.32,3.56,36.76,6.63,54.93,4.91,29.09,29.08,49.17,58.67,49.28q85.9.31,171.81,0c31.3-.13,55.92-22.73,59.45-53.72q8-70.22,16.1-140.44a34.43,34.43,0,0,0-32.61-38.31c-12-.52-18.86-9-15.83-19.47,1.88-6.51,7.29-10.4,14.64-10.51,24.74-.4,48.67,15.41,58.68,39.22,2.39,5.66,3.59,11.82,5.33,17.76Z" transform="translate(-308 -308)" />
    <path d="M502.57,308c7.48,1.22,15.18,1.66,22.39,3.78,33.91,10,53.41,33.13,59,67.62,1.83,11.22,1.45,22.85,1.5,34.3,0,8.73-6.78,14.68-16,14.71-18.83.07-37.66,0-56.5,0-7,0-14,.14-21,0-11.24-.28-18.13-9.62-14.83-19.88,2-6.33,7.41-10,15-10,19.58-.05,39.17,0,58.75,0h4.45A56.33,56.33,0,0,0,553.24,377a53.08,53.08,0,0,0-55.75-38.8c-27.19,2.15-47.13,20.65-50.34,46.79a101.29,101.29,0,0,0-.71,11.55c-.08,16.59,0,33.17,0,49.76,0,9.65-6.36,16.56-15.07,16.48s-14.84-6.91-14.85-16.3c0-17.71-.55-35.44.1-53.13,1.3-35.34,16.16-62.49,49.31-77.77a79.55,79.55,0,0,1,28.9-7c1.6-.09,3.19-.41,4.79-.62Z" transform="translate(-308 -308)" />
    <path d="M436.05,507a18.59,18.59,0,0,1,18.58,18.54c0,10.16-8.44,18.77-18.46,18.78a18.55,18.55,0,0,1-18.88-18.67C417.25,515.06,425.31,507.05,436.05,507Z" transform="translate(-308 -308)" />
    <path d="M500.23,507a18.6,18.6,0,1,1,.07,37.19,18.34,18.34,0,0,1-18.7-18.74A18.55,18.55,0,0,1,500.23,507Z" transform="translate(-308 -308)" />
    <path d="M500.38,571.33A18.64,18.64,0,0,1,519,589.86a18.37,18.37,0,0,1-18.83,18.62c-10.67-.08-18.59-8.12-18.55-18.84A18.56,18.56,0,0,1,500.38,571.33Z" transform="translate(-308 -308)" />
    <path d="M435.93,608.48a18.31,18.31,0,0,1-18.7-18.72,18.7,18.7,0,0,1,37.39,0A18.33,18.33,0,0,1,435.93,608.48Z" transform="translate(-308 -308)" />
    <path d="M564.64,507a18.6,18.6,0,1,1-.06,37.19A18.31,18.31,0,0,1,546,525.39,18.5,18.5,0,0,1,564.64,507Z" transform="translate(-308 -308)" />
    <path d="M564.7,571.33a18.66,18.66,0,0,1,18.64,18.5,18.38,18.38,0,0,1-18.81,18.65c-10.69-.06-18.59-8.06-18.56-18.81A18.51,18.51,0,0,1,564.7,571.33Z" transform="translate(-308 -308)" />
</svg>