<svg xmlns="http://www.w3.org/2000/svg" viewBox="0 0 384 384">
  <path d="M692,370.14C686,392,668.59,401.58,649.45,409c-18.15,7-37.2,10.32-56.5,11.88-26.85,2.17-53.59,1.18-80-4.34-16.91-3.52-33.38-8.47-47.84-18.29a62.25,62.25,0,0,1-12.53-11.1c-12.15-14.38-11.41-32.2,1.52-46,9.93-10.58,22.62-16.59,36-21.2,22.25-7.64,45.28-10.73,68.7-11.39,2.48-.07,4.94-.37,7.41-.56H570c1.09.16,2.19.41,3.29.48,9.44.61,18.91.84,28.31,1.85,19.12,2.06,37.82,6.07,55.45,14,16.36,7.4,30.3,17.26,35,36ZM569.22,392c21.8-.28,40.95-2.43,59.67-7.67,9.87-2.76,19.46-6.27,27.76-12.53,6.92-5.21,7.18-8.5-.12-13.23a99.14,99.14,0,0,0-19.91-10c-18.54-6.75-37.94-9.19-57.57-10-25.57-1-50.81,1-75.43,8.41-8.74,2.62-17.18,6-24.53,11.61-6.72,5.11-7,8.4.11,13.05a91.69,91.69,0,0,0,18.83,9.7C521.77,389.93,546.55,392.08,569.22,392Z" transform="translate(-308 -308)" />
  <path d="M435.54,691c-70.3-.32-127.14-57.4-126.88-127.4s57.69-127.17,127.58-126.72c70.08.45,126.84,57.65,126.45,127.42C562.3,634.46,505.28,691.28,435.54,691Zm.07-29.86c53.4.16,97.12-43.52,97.21-97.1a97.12,97.12,0,1,0-97.21,97.1Z" transform="translate(-308 -308)" />
  <path d="M576.14,690.72c-5.1,0-10.24.35-15.31-.09-7.21-.63-12.4-6.43-13-13.72a14.55,14.55,0,0,1,10.4-15.08,31.49,31.49,0,0,1,8.14-.7c30.31-.26,60.16-3.6,89.06-13.27,4.95-1.65,9.77-3.7,14.64-5.61,8.24-3.25,16.75,0,20,7.78s-.2,16.09-8.39,19.72c-20.88,9.25-42.82,14.76-65.38,17.72-13.33,1.75-26.76,2.65-40.15,3.93Z" transform="translate(-308 -308)" />
  <path d="M586.77,488.58c-3,0-6,.4-8.92-.08a14.81,14.81,0,0,1,1.82-29.34c23.72-1.24,47.18-4.12,69.93-11.19,6.77-2.1,13.38-4.72,20-7.31,8.56-3.38,17-.4,20.44,7.41,3.5,8-.11,16.38-8.78,20.14-21.76,9.46-44.61,14.87-68,17.92-8.77,1.14-17.6,1.85-26.39,2.76Z" transform="translate(-308 -308)" />
  <path d="M676.06,574a15.71,15.71,0,0,1,14.85,11.91,14.31,14.31,0,0,1-8.46,16.91c-11.14,4.29-22.33,8.82-33.89,11.52-15.85,3.71-32,6-48.16,8.48-8.08,1.22-15.31-5.49-16-13.82-.68-7.74,5.31-14.52,13.28-15.88,16.07-2.73,32.17-5.41,48.09-8.9,7.84-1.72,15.28-5.23,22.92-7.88C671.1,575.5,673.59,574.79,676.06,574Z" transform="translate(-308 -308)" />
  <path d="M606.06,555.12c-9.92.14-16.28-5.54-17.1-13.72a14.67,14.67,0,0,1,12-15.67c10.76-2,21.77-3,32.34-5.63,12.5-3.18,24.74-7.47,36.93-11.74,10.93-3.82,21.64,3.36,20.94,14.63-.39,6.32-3.86,10.62-9.62,13.1a246.21,246.21,0,0,1-59.12,16.69C616.45,553.74,610.4,554.5,606.06,555.12Z" transform="translate(-308 -308)" />
  <path d="M422.87,622.13c-6.2-1.94-12.31-3.64-18.27-5.77-8.68-3.1-12.74-11.33-9.85-19.36S406,585.53,415,588.29c7.23,2.22,14.7,3.71,22.11,5.28,1.73.37,4.13.43,5.41-.5a13.87,13.87,0,0,0,4.86-6c1-2.74-1-5.2-3.55-6.29a23.62,23.62,0,0,0-7.87-1.84c-11.16-.64-21.41-3.64-29.76-11.37-20.08-18.59-12.94-51.78,13.15-61.15,2.49-.89,3.67-1.87,4-4.76.74-7.21,7.56-12.63,15-12.47a14.49,14.49,0,0,1,14.36,13.54c.25,3.67,1.7,4.86,4.83,5.58a57,57,0,0,1,7.78,2.64c8.05,3.1,11.93,11.28,9.14,19.11s-10.92,11.41-19.19,9.12c-7.39-2-14.94-3.58-22.48-5a7.92,7.92,0,0,0-5.21,1.46c-4.08,2.76-4.08,8.67.31,10.74A34,34,0,0,0,439.31,549c14.36,1.19,25.95,7,33.37,19.66,10.84,18.47,3.06,42-16.85,51.45-1.83.87-2.82,1.68-3,4-.66,8.69-7,14.71-15,14.59-8.24-.11-14.1-6.17-14.74-15.24C423,623,422.92,622.47,422.87,622.13Z" transform="translate(-308 -308)" />
</svg>