<svg xmlns="http://www.w3.org/2000/svg" viewBox="0 0 384 384">
    <path d="M501.87,308c8.87,3,11.94,9.53,11.68,18.5-.3,9.95.07,19.92-.12,29.88-.21,11.29-8.88,18.13-19.16,15.22-6-1.68-10.08-5.75-10.3-11.88q-.69-19.58,0-39.18c.23-6.74,5.24-10.33,11.18-12.54Z" transform="translate(-308 -308)" />
    <path d="M500.54,394.06q24.33,0,48.65,0c21,0,38.95,7.45,53.88,22.12q27,26.51,53.77,53.15a57,57,0,0,1,6.31,73.92c-16.52,23.4-35.44,44.79-55.21,65.44-23.39,24.45-47.77,47.84-75,68.14-7.51,5.61-15.25,10.85-24.46,13.34-11.09,3-21.27,0-30.13-6.31-12.79-9.08-25.49-18.43-37.27-28.76-36-31.58-69-66.09-98-104.24-6.22-8.16-12.06-16.52-14.42-26.77-4.68-20.37-.3-38.61,14.23-53.58q28-28.86,57.21-56.57a70.44,70.44,0,0,1,48.4-19.79c17.33-.33,34.68-.07,52-.07Zm143.4,115.71a27.82,27.82,0,0,0-8.47-19.45q-26.22-25.9-52.36-51.89A47.58,47.58,0,0,0,547.85,424q-47.34.23-94.68,0c-14.16-.08-25.92,4.89-35.87,14.83q-25.41,25.39-51,50.59c-11.39,11.26-12.58,25-3.19,38.07,17.58,24.48,37.67,46.82,58.74,68.29s43.05,42.33,67.82,59.81c10.53,7.43,11,7.39,21.54,0,22.72-16,43-34.89,62.54-54.51,23.1-23.16,45-47.34,64.23-73.92A29.94,29.94,0,0,0,643.94,509.77Z" transform="translate(-308 -308)" />
    <path d="M592.88,315.47c11.48-.06,18.83,9.5,15.71,19.28C605,346,601,357.17,596.87,368.23a14.89,14.89,0,0,1-28-10q5.5-16.86,11.72-33.48A13.7,13.7,0,0,1,592.88,315.47Z" transform="translate(-308 -308)" />
    <path d="M405.61,314.7a14.29,14.29,0,0,1,13.88,9.49c3.89,11.16,7.63,22.37,11,33.69a14.89,14.89,0,0,1-28.42,8.87c-3.75-10.81-7.34-21.68-10.67-32.62A14.84,14.84,0,0,1,405.61,314.7Z" transform="translate(-308 -308)" />
    <path d="M533.08,504.12h4.35c16.22,0,32.43,0,48.65,0,9.07,0,15.75,6.44,15.72,15S595.1,534,586,534q-85.51,0-171,0c-9.6,0-16-6.15-15.9-15.08s6.42-14.82,16.14-14.83c17,0,33.92,0,51.51,0-.76-1.21-1.24-2.11-1.84-2.92-6.5-8.69-13.05-17.34-19.51-26.05-5.75-7.76-4.68-16.9,2.49-22.13,7-5.09,15.8-3.35,21.59,4.35,10.12,13.44,20.2,26.91,30.52,40.68,1.89-2.48,3.62-4.71,5.31-7Q518.06,474,530.85,457c4-5.4,9.33-7.9,16-6.33,10.68,2.53,15,14.59,8.36,23.71S541.94,492.13,535.29,501C534.69,501.81,534.14,502.62,533.08,504.12Z" transform="translate(-308 -308)" />
</svg>