<svg xmlns="http://www.w3.org/2000/svg" viewBox="0 0 384 384">
    <path d="M692,440.49c-.67,5.29-1.33,10.58-2,15.87-4.48,34.27-16.6,65.79-34.42,95.22-22.82,37.68-52.81,68.94-86.7,96.74-12.46,10.23-25.6,19.09-41.32,23.33-30.34,8.2-59,3.93-84.25-14.72-36.36-26.83-68.07-58.47-93.16-96.33-19.64-29.65-33.4-61.74-38.81-97.06-3.54-23.1-4.89-46.29,3.49-68.72,14.58-39,41.94-64,83.55-69.83,39.85-5.58,72.79,9.22,98.66,39.87,1,1.14,1.84,2.35,3,3.83,1.8-2.21,3.48-4.29,5.18-6.35,49.64-59.95,146-47.41,177.3,23.09a109,109,0,0,1,8.82,33.83,31.18,31.18,0,0,0,.69,3.27Zm-353.65-7.85c.7,7.82,1.07,15.68,2.17,23.44,4.56,32.31,17.16,61.5,35.11,88.52,22.83,34.35,51.78,62.91,84.51,87.66a67.23,67.23,0,0,0,81.21-.43,388.87,388.87,0,0,0,59.14-55.42c27.67-32.26,48.7-68,57.43-110.14,3.28-15.78,5.92-31.81,3.11-47.89-5-28.78-20.48-50.1-48.33-60.18-28.05-10.14-53.9-3.82-76.48,15.07-12.69,10.62-20.55,24.17-21,41.38-.2,7.86-7,13.88-14.87,13.88a14.77,14.77,0,0,1-14.9-14.27,49.23,49.23,0,0,0-6.63-23.1c-13.48-23.56-49.86-46.68-88.47-34C359,367.48,338.3,397.62,338.35,432.64Z" transform="translate(-308 -308)" />
</svg>