<svg xmlns="http://www.w3.org/2000/svg" viewBox="0 0 1000 1000">
    <path d="M0,787.11V212.89a55.71,55.71,0,0,0,1.77-6.49C16.15,111.87,68,47.28,157.33,13.55,175,6.86,194.33,4.41,212.89,0H787.11a44.29,44.29,0,0,0,6.44,1.76c92.9,10.86,171.28,77.3,196.94,167.53,4.07,14.28,6.38,29.06,9.51,43.6V787.11a36.31,36.31,0,0,0-1.69,5.44c-14.76,98.34-69.36,163.85-163,196.54-15.46,5.4-32.12,7.36-48.23,10.91H212.89a43.75,43.75,0,0,0-6.42-1.77C114.21,987.54,35.38,921,9.74,831.67,5.56,817.09,3.2,802,0,787.11ZM78.13,499.5q0,130.85,0,261.71c.05,92.24,68.15,160.61,160.15,160.65q261.72.09,523.43,0c92,0,160.13-68.43,160.15-160.66q.07-261.23,0-522.45c0-92.26-68.13-160.58-160.15-160.61q-261.72-.08-523.43,0c-92,0-160.1,68.35-160.15,160.62Q78.07,369.13,78.13,499.5Z" transform="translate(0)"/>
    <path d="M499.64,247.58C629,247.2,750.42,337,753.37,501.85,755.84,640,639,754,499.86,753.9,361.1,753.82,244.6,640.34,246.63,502.55,249.09,336.94,371.23,247.41,499.64,247.58Zm-.27,427.31c99,.65,175.34-75.25,176.39-175.27,1-94.81-78.46-174.81-174.17-175.38-96.39-.58-176.48,77.2-177.33,172.2C323.36,597.26,398.88,674.22,499.37,674.89Z" transform="translate(0)"/>
    <path d="M775.66,175.8a48.81,48.81,0,1,1-49.07,48.77A48.85,48.85,0,0,1,775.66,175.8Z" transform="translate(0)"/>
</svg>