<svg xmlns="http://www.w3.org/2000/svg" viewBox="0 0 384 384">
    <path d="M692,389.59V609.66a16.65,16.65,0,0,0-.68,2.46c-5.08,44.16-43,78.83-87.4,79q-103.26.45-206.54,0C348.89,691,309,651.1,308.84,602.61q-.43-103.08,0-206.16C309,359,333.45,325.29,369,313.16c6.9-2.35,14.2-3.47,21.32-5.16H610.41a15.58,15.58,0,0,0,2.47.67A89.8,89.8,0,0,1,689,375C690.24,379.82,691,384.73,692,389.59ZM500.51,337.94q-50.34,0-100.68,0c-34.83,0-61.12,26.26-61.13,61q0,100.68,0,201.36c0,34.57,26.31,60.92,60.86,60.95q100.86.06,201.73,0c34.33,0,60.73-26.39,60.75-60.67q.08-101.05,0-202.11a62.16,62.16,0,0,0-1.16-12.25c-5.91-28.69-30-48.26-59.29-48.31Q551,337.88,500.51,337.94Z" transform="translate(-308 -308)" />
    <path d="M488.65,457c-23.06,0-46.12,0-69.19,0-11,0-18.24-9.86-14.82-19.84,2.11-6.15,7.69-10.05,14.68-10.07,15.33,0,30.67,0,46,0q46.38,0,92.75,0c11,0,18.24,9.83,14.83,19.82-2.14,6.25-7.77,10.08-15.06,10.09Q523.25,457,488.65,457Z" transform="translate(-308 -308)" />
    <path d="M526.2,543c20.81,0,41.63,0,62.45,0a14.72,14.72,0,0,1,14.61,11.61,14.53,14.53,0,0,1-7.48,16.39,17.57,17.57,0,0,1-7.5,1.83q-62.09.17-124.16.06c-8.81,0-15.38-6.54-15.38-15s6.58-14.92,15.38-15C484.81,543,505.5,543,526.2,543Z" transform="translate(-308 -308)" />
    <path d="M558.41,484.66c17.57,0,35.15-.06,52.72,0a14.94,14.94,0,0,1,2.92,29.6,16.21,16.21,0,0,1-3.34.29q-52.35,0-104.7,0c-8.2,0-14.57-5.74-15.31-13.48a15,15,0,0,1,12-16.12,23.54,23.54,0,0,1,4.83-.3Q533,484.64,558.41,484.66Z" transform="translate(-308 -308)" />
    <path d="M419.89,398.57c-10,0-19.94,0-29.91,0-9.4,0-16.11-6.31-16.1-15s6.72-14.93,16.13-14.94q30.28,0,60.56,0c9.41,0,16.11,6.28,16.11,15s-6.71,14.93-16.14,15C440.32,398.6,430.11,398.57,419.89,398.57Z" transform="translate(-308 -308)" />
    <path d="M592.35,631.37c-5.35,0-10.71.06-16.07,0-8.74-.12-15.31-6.64-15.26-15.05s6.63-14.8,15.45-14.86q15.87-.09,31.75,0c9,0,15.69,6.49,15.65,15s-6.63,14.78-15.45,14.88C603.06,631.42,597.71,631.37,592.35,631.37Z" transform="translate(-308 -308)" />
</svg>