<svg xmlns="http://www.w3.org/2000/svg" viewBox="0 0 326.36 215.28">
    <path d="M635.76,491a57.55,57.55,0,0,0-22.38-22.26,68.63,68.63,0,0,0-64.24,0A58.06,58.06,0,0,0,526.64,491a59.75,59.75,0,0,0-7.22,20.46,68.55,68.55,0,0,0-1,11.89c0,1.38,0,2.69.09,4a3.74,3.74,0,0,1-.61.39,25,25,0,0,1-5.62,2.69,30.45,30.45,0,0,1-10,1.66,25.93,25.93,0,0,1-9.23-1.5,17.6,17.6,0,0,1-6.58-4.25c-3.67-3.82-5.5-9.42-5.5-16.76V436H518.5V422H481V372H464.39v13.67l0,0-25.53-14.74-7,12.2,32.57,18.77,0,0v21l0,0-.19.12-19.54,13-42.49,28.19a67.69,67.69,0,0,0-21.87-3.46,64.69,64.69,0,0,0-32.1,8A58.06,58.06,0,0,0,325.67,491q-8.22,14.31-8.2,32.35c0,12,2.72,22.81,8.2,32.35a58.78,58.78,0,0,0,22.5,22.38,67.9,67.9,0,0,0,64.21,0,57.86,57.86,0,0,0,22.38-22.38c5.41-9.54,8.1-20.3,8.1-32.35s-2.69-22.81-8.1-32.35a57.07,57.07,0,0,0-18-19.6l47.64-31.58,0,0v70.78c0,.95,0,1.86.06,2.75.46,10.09,3.57,18,9.29,23.73q9.4,9.36,26.72,9.35a47.27,47.27,0,0,0,14.44-2.2,37.84,37.84,0,0,0,5.93-2.5,59.94,59.94,0,0,0,28.31,36.38,68,68,0,0,0,64.24,0,58.26,58.26,0,0,0,22.38-22.38c5.38-9.54,8.07-20.3,8.07-32.35A64.72,64.72,0,0,0,635.76,491Zm-215.65,7.28a56.47,56.47,0,0,1,0,50.14,41.36,41.36,0,0,1-16.29,17,49.27,49.27,0,0,1-47.09,0,42.1,42.1,0,0,1-16.42-17,55.71,55.71,0,0,1,0-50.14,42.29,42.29,0,0,1,16.42-17,49.27,49.27,0,0,1,47.09,0A41.54,41.54,0,0,1,420.11,498.29Zm201,50.14a41.29,41.29,0,0,1-16.26,17,49.33,49.33,0,0,1-47.12,0,42.3,42.3,0,0,1-16.42-17,55.71,55.71,0,0,1,0-50.14,42.49,42.49,0,0,1,16.42-17,49.33,49.33,0,0,1,47.12,0,41.47,41.47,0,0,1,16.26,17,56.47,56.47,0,0,1,0,50.14Z" transform="translate(-317.47 -370.88)"/>
</svg>