<svg xmlns="http://www.w3.org/2000/svg" viewBox="0 0 384 384">
    <path d="M692,445.66c-2,7.6-4.3,15-9.32,21.32-8.95,11.2-20.54,17.52-34.85,17.54q-147.47.19-294.94,0c-24.41,0-44.25-20.53-44.21-45,.05-24.27,19.87-44.46,44.08-44.77,10.1-.12,20.21-.08,30.32,0,8.83.06,15.41,6.49,15.43,14.92s-6.57,14.92-15.38,15c-9.48.08-19,0-28.44,0s-16.1,6.38-16.05,15.07c.05,8.53,6.73,14.86,15.88,14.86q145.78,0,291.57,0c9.19,0,15.87-6.28,15.95-14.81.08-8.71-6.64-15.12-16-15.13q-72.22,0-144.47,0c-9,0-15.56-5.65-16.16-13.81A14.92,14.92,0,0,1,500,394.78c5.11-.15,10.23,0,15.34,0,42.92,0,85.84.41,128.76-.15,26-.33,44.51,17.88,47.35,38.16,0,.33.37.62.56.93Z" transform="translate(-308 -308)" />
    <path d="M692,565.47c-2,7.72-4.39,15.26-9.55,21.62-8.85,10.89-20.23,16.84-34.25,17.24-10.22.3-20.46.13-30.69,0-8.79-.06-15.37-6.59-15.34-15s6.62-14.84,15.46-14.9c9.48-.06,19,0,28.45,0,9.34,0,16.06-6.47,16-15.17-.1-8.53-6.78-14.77-16-14.77H354.86c-9.45,0-16.18,6.22-16.22,14.89,0,8.82,6.74,15.05,16.46,15.05q72,0,144.1,0c11.33,0,18.72,9.63,15.3,19.79a14.91,14.91,0,0,1-14.28,10.13c-7.23.09-14.47,0-21.7,0-41.55,0-83.1.06-124.64,0-26,0-46.05-21.06-45.17-47,.77-22.58,20.11-42,42.69-42.76,1.74-.06,3.49,0,5.24,0,95.82,0,191.64.24,287.45-.16,26.41-.11,44.61,18.26,47.35,38.17,0,.33.37.62.56.93Z" transform="translate(-308 -308)" />
    <path d="M455.42,379.86c0,9.47,0,18.94,0,28.42,0,9.7-6.24,16.45-15.06,16.4-8.66-.05-14.86-6.77-14.87-16.22q0-28.8,0-57.59c0-9.37,6.36-16.07,15.06-16s14.82,6.67,14.87,15.84C455.46,360.41,455.42,370.14,455.42,379.86Z" transform="translate(-308 -308)" />
    <path d="M545.26,619c0-9.47,0-19,0-28.42s6.28-16.12,15-16.12,14.94,6.69,15,16.13q0,28.8,0,57.59c0,9.42-6.29,16.12-15,16.12s-14.92-6.73-15-16.14C545.24,638.44,545.26,628.72,545.26,619Z" transform="translate(-308 -308)" />
    <path d="M515.24,364.78c-5,0-10,.09-14.95,0a15,15,0,1,1,.15-29.9q14.94-.15,29.89,0a15,15,0,1,1-.14,29.9C525.21,364.86,520.22,364.79,515.24,364.78Z" transform="translate(-308 -308)" />
    <path d="M485.49,634.36c4.86,0,9.72-.06,14.58,0,8.74.13,15.29,6.65,15.23,15.09a14.89,14.89,0,0,1-15.12,14.82q-14.76.16-29.52,0c-8.73-.08-15.29-6.67-15.23-15.09.07-8.26,6.57-14.69,15.11-14.82C475.53,634.3,480.51,634.36,485.49,634.36Z" transform="translate(-308 -308)" />
</svg>