<svg xmlns="http://www.w3.org/2000/svg" viewBox="0 0 512 512">
    <path d="M589,756H562a14.58,14.58,0,0,0-2.81-.79C523,752.4,489,741.7,456.81,725.45c-72.39-36.53-128.95-90.19-170.39-159.72-19.05-32-32.67-66.19-38.74-103.12-1.55-9.48-2.47-19.07-3.68-28.61V414c.29-1.94.71-3.87.85-5.82a193.83,193.83,0,0,1,10.76-51.55c14.12-39.78,39.76-71.05,72.07-97.31a67.61,67.61,0,0,1,29.65-13.54c2.57-.52,5.11-1.18,7.67-1.78h15a18.08,18.08,0,0,0,2.84.84A72,72,0,0,1,425.41,266c12.29,12.45,24.52,25,36.4,37.81,33.19,35.9,20.74,95.67-23.88,115.53-7.45,3.32-14.74,7-22.23,10.18-13.61,5.86-23.11,25.41-21.17,40.4,1.86,14.47,7.89,27.15,16,38.87,21.28,30.86,47.47,57,77.62,79.23A107.15,107.15,0,0,0,521,604.38c19,5.7,43.86-4.17,51.69-23.63,2.61-6.48,5.57-12.81,8.39-19.2,19.42-44,79.66-56.65,114.88-23.94,13.06,12.13,25.74,24.67,38.41,37.22a69.67,69.67,0,0,1,18.72,33c1.18,4.66,1.94,9.42,2.89,14.13v10a32.37,32.37,0,0,0-.9,3.84,70.9,70.9,0,0,1-15.2,36.83c-5.2,6.47-10.79,12.67-16.59,18.61-30.89,31.63-67.44,53.12-111.26,61.29C604.42,754,596.69,754.87,589,756Zm-14.2-38.88c12.81-1.91,25.82-3,38.39-5.88,39.65-9.22,70.35-32.44,95.45-63.57,10.92-13.54,9.41-32.54-3.06-45.1q-17.25-17.39-35.22-34.06c-17.73-16.44-43.48-11-53.41,11-3.42,7.58-6.47,15.36-10.41,22.67-15.15,28.17-39.58,41.94-70.87,43.65-21.35,1.17-40.84-6.15-58.47-17.42A337.73,337.73,0,0,1,375.26,527.68c-11.5-17.59-19.69-36.83-20.57-58.2-1.29-31.36,11.28-56,38-72.66,8.84-5.5,18.77-9.27,28.25-13.71,21.22-9.93,26.53-35.87,10.59-53-11.12-12-22.48-23.7-33.95-35.32C384,281,364.15,280.34,349.44,293.14c-5.15,4.48-10.22,9.08-15,13.92C300,341.59,282.14,382.83,284,432a203,203,0,0,0,18.7,77.68c36.77,80.05,95.1,139.85,172.8,180.71A230.47,230.47,0,0,0,574.8,717.12Z" transform="translate(-244 -244)" />
    <path d="M756,466c-.4,1.08-.8,2.17-1.18,3.25a20.19,20.19,0,0,1-21.43,13.66A19.78,19.78,0,0,1,716,465.06c-3-29-10.91-56.54-25.88-81.66Q639.77,299,542.28,284.82c-2.47-.36-5-.58-7.43-.89-9.17-1.15-16.43-7.87-17.79-16.43-1.5-9.47,3.11-17.92,12-21.92,1-.46,2-1.05,3-1.58h11c4.72.76,9.45,1.5,14.17,2.27C653,262,733.31,340.17,752.15,436c1.5,7.63,2.58,15.34,3.85,23Z" transform="translate(-244 -244)" />
    <path d="M516.91,344.34c0-12.81,10.44-21.87,23.12-20,69.61,10.16,125,65.6,135.34,135.47a20.06,20.06,0,0,1-16.47,23A19.86,19.86,0,0,1,636,466.15c-3.47-21.84-11.73-41.54-25.78-58.67Q580.87,371.63,535.06,364C523.71,362.15,516.93,354.77,516.91,344.34Z" transform="translate(-244 -244)" />
    <path d="M516.86,428.17c-.12-15.49,12.67-25.54,25.57-21.1,25.27,8.69,42,26.34,50.34,51.56,3.35,10.07-2.61,20.8-12.32,24.21-10,3.5-21.09-.79-24.9-10.76-5.2-13.61-14-22.88-27.62-28.28A17.31,17.31,0,0,1,516.86,428.17Z" transform="translate(-244 -244)" />
</svg>