<svg xmlns="http://www.w3.org/2000/svg" viewBox="0 0 384 384">
    <path d="M692,606.67c-.94,3.72-1.66,7.52-2.86,11.17a55.32,55.32,0,0,1-107.89-16.78c-.12-43.38-.37-86.77.11-130.15.24-22.51,9.78-40.58,30.89-50.22s41.63-7.36,60.09,7.11c11.12,8.71,16.71,20.81,18.91,34.58.16,1,.5,1.88.75,2.81Zm-80.84-71.62c0,21.44-.06,42.88,0,64.32,0,9.74,3.57,17.84,12.25,22.92,17.46,10.24,38.47-1.72,38.56-22.2.2-43.38.08-86.76,0-130.14a25.4,25.4,0,0,0-50.8,0C611.07,491.66,611.17,513.36,611.16,535.05Z" transform="translate(-308 -308)" />
    <path d="M445,495c0-35.3-.29-70.6.1-105.89.23-21.73,8.93-39.31,28.75-49.79,31.32-16.55,75.87-1.43,81.28,42.09a78.55,78.55,0,0,1,.62,9.69q0,104.4,0,208.8c0,27.11-18.14,49.36-44.49,54.88-33.64,7-66-19-66.23-53.51C444.83,565.87,445,530.44,445,495Zm29.93-1.42v39.65c0,22.2-.11,44.39,0,66.59.12,18.4,16.33,30.21,33.61,24.72,10.78-3.42,17.24-13,17.25-25.69q0-79.3,0-158.61c0-17.33.08-34.66,0-52,0-9.9-4.41-17.58-13-22.48-16.93-9.62-37.73,2.62-37.81,22.32C474.83,423.28,474.93,458.44,474.92,493.6Z" transform="translate(-308 -308)" />
    <path d="M420.16,581.44c-.67,10.42-.24,21.07-2.25,31.22-5.16,26-29.31,44.29-55.69,43.27-26.91-1-49.78-21-52.63-47.76-1.59-14.92-.78-30.12-.76-45.2a76.12,76.12,0,0,1,1.49-14.83c5.31-26.43,28.65-44.32,55.92-43.11,27.94,1.24,49.56,20.53,52.41,47.62,1,9.48.16,19.16.16,28.75Zm-81.47-1.65c0,6.73-.08,13.46,0,20.19.22,15,10.81,25.77,25.27,25.89s25.43-10.81,25.58-26q.19-20,0-40a25.42,25.42,0,0,0-50.84.06C338.61,566.59,338.69,573.19,338.69,579.79Z" transform="translate(-308 -308)" />
</svg>